<?xml version="1.0" encoding="UTF-8"?>
<svg id="Capa_1" data-name="Capa 1" xmlns="http://www.w3.org/2000/svg" viewBox="0 0 1124.78 108.05">
  <path d="m581.06,29.51c-.56,19.81-1.08,39.62-1.7,59.43-.13,4.21,1.9,7.21,4.45,10.25,1.21,1.44,2.56,4.39,1.91,5.38-1.09,1.64-3.67,2.97-5.74,3.16-4.81.45-9.71.4-14.53,0-1.81-.15-4.37-1.48-4.97-2.93-.57-1.39.4-4.38,1.69-5.39,5.19-4.07,6.15-9.42,6.35-15.51.68-20.81,1.5-41.61,2.54-62.41.25-5.06-1.48-8.63-5.08-11.98-1.58-1.47-2.92-4.3-2.72-6.34.31-3.14,3.46-3.12,6.13-3.09,5.57.06,11.14.17,16.7-.03,4.14-.15,6.51,1.5,8.13,5.36,8.68,20.71,17.55,41.34,26.37,61.99.54,1.27,1.23,2.49,2.14,4.32,6.36-13.72,12.45-26.88,18.56-40.02,4.2-9.03,8.54-17.99,12.58-27.08,1.42-3.2,3.51-4.58,6.89-4.54,5.85.07,11.72-.19,17.55.14,1.83.11,4.7,1.35,5.08,2.66.48,1.66-.5,4.62-1.88,5.78-4.97,4.18-6.41,9.16-6.1,15.51.98,19.94,1.68,39.9,2.11,59.86.13,6.16,2.6,10.62,7.16,14.29,2.02,1.63,4.28,3.2,3.13,6.32-1.17,3.2-3.92,3.25-6.74,3.24-8.99-.05-17.99.13-26.97-.14-1.98-.06-5.12-1.25-5.56-2.61-.56-1.76.41-4.88,1.84-6.27,4.75-4.64,6.54-9.87,6.28-16.51-.7-17.77-.9-35.57-2.17-53.64-2.74,5.79-5.52,11.56-8.21,17.38-7.59,16.39-15.13,32.81-22.73,49.2-.65,1.41-1.42,2.85-2.46,3.98-3.64,3.98-8.34,3.23-10.42-1.7-8.97-21.21-17.87-42.44-26.8-63.66-.64-1.53-1.34-3.04-2.01-4.56l-.83.16Z" fill="#dfd1c1"/>
  <path d="m891.69,68.39c7.36,10.53,10.5,23.88,22.62,30.98,1.25.73,2.31,3.71,1.8,5-.6,1.52-2.96,3.24-4.62,3.29-9.41.31-18.83.25-28.24.11-4.7-.07-6.85-4-3.83-7.61,4.41-5.29,2.49-9.62.26-15.14-4.16-10.27-10.76-13.73-21.61-12.41-8.7,1.05-8.8.21-8.78,9.11.01,6.77,1.1,12.93,7.27,17.29,1.41.99,2.16,4.03,1.86,5.91-.18,1.15-2.92,2.65-4.54,2.69-10.41.24-20.83.23-31.23-.03-1.64-.04-4.45-1.67-4.57-2.79-.2-1.9.74-4.87,2.21-5.83,6.41-4.16,7.54-10.39,7.58-17.1.09-18.4.08-36.81,0-55.22-.03-6.89-1.74-13.14-6.98-18.2-1.21-1.17-2.01-4.09-1.39-5.48.63-1.41,3.25-2.69,5.02-2.72,13.12-.22,26.27-.53,39.37,0,14.18.58,27.42,3.89,37.87,14.86,11.83,12.42,12.95,42.6-8.56,52.42-.37.17-.72.41-1.51.87Zm-29.76-4.89c1.71,0,3.42.05,5.13,0,11.08-.35,19.77-8.18,20.78-18.79,1.92-20.27-10.26-37.19-32.6-35.37-4.9.4-5.93,1.14-5.94,6.13-.02,11.82,0,23.64,0,35.46,0,12.3.28,12.58,12.65,12.58Z" fill="#dfd1c1"/>
  <path d="m509.56,107.87c-4.71,0-9.44.29-14.11-.14-1.93-.18-4.51-1.52-5.32-3.09-.62-1.2.56-4.24,1.87-5.33,3.22-2.66,3.75-5.44,2.83-9.37-2.6-11.14-3.87-12.59-15.21-12.72-8.54-.1-17.1.24-25.62.79-1.69.11-4.02,1.7-4.75,3.24-1.82,3.81-3.28,7.9-4.06,12.03-.34,1.79,1.49,3.94,2.14,5.98.64,2.02,1.79,4.33,1.29,6.11-.33,1.2-3.12,2.31-4.86,2.4-5.69.3-11.43.39-17.1-.05-1.82-.14-4.54-1.93-4.93-3.46-.38-1.49,1.23-4.53,2.76-5.28,5.57-2.72,8.5-7.21,10.68-12.69,8.45-21.25,16.94-42.48,25.64-63.63,2.3-5.59,3.35-10.43-2.16-14.85-1.04-.83-1.49-3.6-.9-4.9.59-1.31,2.75-2.58,4.29-2.66,5.69-.31,11.41-.16,17.11-.11,3.59.03,5.06,2.43,6.24,5.44,9.31,23.66,18.7,47.29,28.07,70.93,1.36,3.43,2.31,7.11,4.19,10.23,2.59,4.29,6.02,8.07,8.82,12.26,1.14,1.71,2.44,4.11,2.05,5.81-.31,1.33-3.07,2.79-4.85,2.95-4.67.41-9.4.14-14.11.14Zm-54.77-40.88h31.63c-5.37-13.82-10.32-26.58-15.27-39.33l-1.05.16c-4.97,12.7-9.93,25.4-15.32,39.17Z" fill="#dfd1c1"/>
  <path d="m786.75,107.8c-4.85,0-9.73.25-14.55-.14-1.64-.13-3.82-1.58-4.5-3.02-.55-1.16.24-3.97,1.35-4.75,5.1-3.6,4.26-7.95,2.64-12.86-2.95-8.96-2.82-9.37-12.29-9.64-9.39-.28-18.82.15-28.21.64-1.54.08-3.65,1.77-4.33,3.25-1.76,3.85-3.22,7.93-4.06,12.08-.34,1.66,1.37,3.69,1.97,5.61.67,2.15,1.94,4.58,1.42,6.47-.34,1.21-3.39,2.23-5.29,2.35-5.26.31-10.58.4-15.83-.04-1.98-.17-4.67-1.61-5.53-3.26-1.37-2.61.43-4.79,3.16-5.96,4.76-2.05,7.61-5.91,9.47-10.54,9.07-22.55,18.04-45.14,27.17-67.66,1.81-4.46,1.6-8.04-2.12-11.56-1.33-1.25-2.34-4.33-1.7-5.76.67-1.47,3.48-2.58,5.44-2.75,4.53-.39,9.14.12,13.69-.19,4.62-.32,7.03,1.74,8.65,5.87,10.58,27,21.29,53.94,31.93,80.92,1.92,4.87,4.66,8.98,8.91,12.26,1.41,1.09,2.4,4.02,1.99,5.73-.32,1.31-3.07,2.72-4.84,2.87-4.82.39-9.7.13-14.55.13Zm-22.67-40.69c-5.34-13.84-10.29-26.66-15.7-40.7-5.34,14.1-11.14,26.68-15.48,40.7h31.18Z" fill="#dfd1c1"/>
  <path d="m1105.49,107.8c-4.57,0-9.16.29-13.69-.14-1.92-.18-4.5-1.47-5.28-3.02-.63-1.24.44-4.39,1.74-5.35,4.05-2.98,3.71-6.44,2.61-10.57-2.72-10.24-3.84-11.43-14.45-11.52-8.55-.07-17.1.51-25.65.57-3.11.02-4.75,1.46-5.72,4.12-1.02,2.8-2.03,5.61-3.04,8.41-1.25,3.48-1.15,6.48,1.88,9.32,1.15,1.08,1.78,3.88,1.19,5.29-.57,1.36-2.96,2.66-4.62,2.75-5.83.33-11.71.36-17.54-.02-1.69-.11-3.98-1.64-4.73-3.15-1.2-2.44.1-4.7,2.75-5.82,5.24-2.21,8.13-6.41,10.16-11.5,8.91-22.3,17.87-44.59,26.9-66.84,1.79-4.42,1.75-8.05-2.1-11.54-1.36-1.23-2.57-4.51-1.87-5.67.96-1.6,3.73-2.7,5.83-2.9,4.53-.42,9.14.08,13.69-.19,4.43-.27,6.77,1.7,8.33,5.68,10.55,26.85,21.26,53.63,31.81,80.48,2.03,5.18,4.82,9.52,9.3,12.99,1.37,1.06,2.08,4.05,1.71,5.88-.24,1.17-2.95,2.48-4.64,2.61-4.83.35-9.7.12-14.55.13Zm-22.74-40.67c-5.43-14.04-10.37-26.79-15.3-39.54-.35.04-.7.08-1.05.11-4.98,12.81-9.95,25.62-15.32,39.43h31.67Z" fill="#dfd1c1"/>
  <path d="m971.89.1c10.42,0,20.84-.02,31.25,0,9.36.02,11.11,1.56,12.31,10.72.68,5.22,1.49,10.43,1.91,15.67.13,1.61-.84,3.32-1.3,4.98-1.81-.54-4.33-.53-5.29-1.74-2.71-3.43-4.88-7.3-7.07-11.11-2.77-4.81-6.93-7.46-12.29-8.24-6.12-.89-9.26,1.79-9.27,8.01-.05,21.26-.12,42.53.04,63.79.05,6.51,1.17,12.72,7.63,16.64,1.37.83,2.56,4.02,2.02,5.4-.64,1.61-3.25,3.36-5.06,3.42-10.12.33-20.26.3-30.39.02-1.71-.05-4.45-1.66-4.79-3.02-.43-1.76.47-4.96,1.87-5.85,6.18-3.94,7.31-9.8,7.32-16.29.03-21.41.03-42.81,0-64.22,0-6.24-2.99-8.77-9.21-7.89-4.93.7-8.84,3.16-11.54,7.32-1.78,2.74-3.16,5.74-4.92,8.49-1.05,1.65-2.28,3.35-3.84,4.44-1.1.77-3.1,1.07-4.29.59-.82-.33-1.43-2.42-1.31-3.64.72-7.21,1.48-14.43,2.64-21.58.65-4.01,4.11-5.83,10.17-5.88,11.13-.08,22.26-.02,33.39-.03Z" fill="#dfd1c1"/>
  <path d="m368.15,107.87c-9.99,0-19.98.16-29.95-.13-2.04-.06-5.14-1.41-5.74-2.96-.59-1.51.81-4.81,2.35-5.94,5.39-3.97,7.29-9.19,7.29-15.53,0-19.26.13-38.52-.02-57.78-.05-6.36-1.26-12.37-7.31-16.4-1.39-.93-2.44-4.18-1.88-5.73.55-1.52,3.31-3.1,5.15-3.16,9.98-.3,19.97-.29,29.95,0,1.71.05,4.4,1.62,4.79,3,.48,1.7-.36,4.92-1.72,5.8-6.43,4.16-7.49,10.3-7.48,17.1.02,21.11,0,42.23.01,63.34,0,6.21,1.48,7.87,7.59,8.39,2.41.21,4.86,0,7.26.3,10.62,1.32,17.4-3.52,21.41-13.04.99-2.35,1.9-4.88,3.49-6.8,1.05-1.28,3.43-2.49,4.84-2.15,1.37.33,3.28,2.73,3.19,4.11-.49,7.37-1.26,14.75-2.58,22-.33,1.82-2.84,3.83-4.8,4.61-2.41.95-5.3.91-7.99.94-9.27.1-18.54.04-27.82.04Z" fill="#dfd1c1"/>
  <path d="m147.39,84.52c-4.2,1.38-6.77-.36-9.36-3.38-10.85-12.62-21.93-25.03-33.72-38.41v40.89h-9.04V24.45c5.2-.91,9.44-.75,13.42,4.09,8.6,10.45,17.95,20.29,27,30.36.73.81,1.58,1.51,3.16,3V24.29h8.54v60.22Z" fill="#dfd1c1"/>
  <path d="m227.49,38.97c-1.68,1.23-3.47,2.54-4.64,3.39-2.79-2.44-5.31-4.72-7.89-6.91-6.23-5.28-13.09-7.31-20.97-3.96-8.11,3.44-11.76,10.14-12.78,18.34-.72,5.81-.19,11.61,2.66,17.05,6.4,12.23,21.22,14.94,31.26,5.51,2.37-2.22,4.39-4.82,6.79-7.48,1.86,1.36,3.66,2.68,5.75,4.21-5.76,8.9-13.34,14.87-23.72,16.02-12.35,1.37-23.67-1.72-32.09-11.38-8.03-9.21-9.05-20.13-4.93-31.27,4.26-11.5,13.45-17.31,25.2-19.24,13.89-2.28,25.73,1.11,34.23,13.08.33.46.63.95.88,1.46.12.24.12.55.25,1.18Z" fill="#dfd1c1"/>
  <path d="m237.48,83.69c5.58-11.7,10.93-22.96,16.3-34.21,3.85-8.08,7.6-16.2,11.68-24.16.63-1.23,2.79-2.33,4.23-2.32,1.46.01,3.66,1.13,4.24,2.37,8.85,18.9,17.5,37.89,26.17,56.88.17.36.11.82.22,1.72-4.32,0-8.54.16-12.73-.12-.99-.07-2.2-1.49-2.75-2.57-1.86-3.67-3.3-7.56-5.28-11.15-.64-1.17-2.44-2.33-3.75-2.38-5.97-.25-11.97-.25-17.95,0-1.33.06-3.02,1.18-3.83,2.32-1.38,1.94-2.22,4.26-3.25,6.45q-3.75,8-13.31,7.19Zm38.38-21.84c-2.95-6.48-5.68-12.47-8.8-19.33-3.21,6.82-6.06,12.88-9.09,19.33h17.89Z" fill="#dfd1c1"/>
  <path d="m.24,4.21C.15,2.81.09,1.75,0,.38h300.81c.89,2.62.41,4.12-2.73,3.83-.71-.07-1.43,0-2.14,0-96.93,0-193.86,0-290.8,0H.24Z" fill="#dfd1c1"/>
  <path d="m300.99,104.01v3.66H.2c-.06-1.21-.12-2.28-.19-3.66h300.98Z" fill="#dfd1c1"/>
  <path d="m42.87,24.41v4.65H14.94v19.63h24.38v5.17H14.87v29.82H.19V24.41h42.68Z" fill="#dfd1c1"/>
  <path d="m74.63,83.84h-13.84V24.34h13.84v59.5Z" fill="#dfd1c1"/>
</svg>