<?xml version="1.0" encoding="UTF-8"?>
<svg id="Capa_1" data-name="Capa 1" xmlns="http://www.w3.org/2000/svg" viewBox="0 0 506.91 283.62">
  <path d="m123.1,250.48c10.1-20.05,20.24-40.08,30.3-60.14,25.33-50.48,50.62-100.98,75.93-151.47,3.03-6.05,6.1-12.09,9.13-18.15,4.31-8.62,11.33-13.3,20.89-13.68,10.01-.4,17.66,4.06,22.22,12.94,10.19,19.85,20.1,39.85,30.14,59.78.74,1.47,1.54,2.9,2.76,4.38-1.34-9.25,3.96-16.21,7.63-23.67,6.45-13.12,12.89-26.25,19.65-39.22,8.66-16.61,29.21-19.4,40.57-5.61,2.03,2.46,3.54,5.41,4.98,8.28,30.28,60.39,60.51,120.81,90.78,181.2,8.76,17.47,17.67,34.88,26.44,52.34,5.61,11.16,1.17,18.4-11.34,18.53-5.85.06-11.7.06-17.55-.06-5.55-.11-9.36-2.61-11.96-7.81-30.7-61.39-61.55-122.7-92.34-184.05-1.61-3.21-2.99-6.5-7.47-6.44-4.39.06-5.92,3.22-7.53,6.45-6.32,12.67-12.6,25.36-19.06,37.96-1.55,3.01-1.67,5.58-.27,8.7,9.2,20.5,18.54,40.93,27.23,61.65,7.3,17.41,9.17,35.44,2.52,53.57-9.88,26.94-37.61,42.15-65.95,36.43-27.55-5.56-45.34-26.41-47.11-54.52-.88-13.93,2.5-26.9,7.75-39.45,7.01-16.74,14.52-33.28,21.85-49.89.53-1.2.6-3.09,2.28-3.11,1.64-.02,1.86,1.84,2.45,3.01,5.83,11.54,11.51,23.15,17.44,34.64,2.26,4.39,2.17,8.47-.04,12.76-3.52,6.84-7.09,13.67-10.37,20.63-4.69,9.95-4.26,19.75,2.02,28.91,7.02,10.24,20.18,11,28.56,1.85,7.46-8.15,8.72-20.44,3.18-31.5-17.11-34.12-34.23-68.24-51.35-102.35-3.24-6.46-6.53-12.91-9.76-19.38-1.62-3.24-3.2-6.36-7.59-6.36-4.25,0-5.7,3.17-7.21,6.19-16.7,33.29-33.35,66.62-50.06,99.91-14.15,28.19-28.43,56.32-42.48,84.56-2.59,5.2-6.42,7.68-12.02,7.68-40.8.01-81.6.19-122.39-.11-14.33-.1-23.65-8.35-25.68-21.08-.86-5.42.64-10.36,3.03-15.13,20.92-41.67,41.86-83.34,62.77-125.02,17.46-34.79,34.92-69.58,52.32-104.41C120.91,5.16,123.31,0,130.06,0c6.51,0,9.05,4.89,11.46,9.9,2.6,5.41,5.18,10.85,8.12,16.07,2.7,4.8,2.43,9.25.01,14.02-10.64,20.99-21.17,42.04-31.74,63.08-19.96,39.74-39.94,79.48-59.86,119.24-3.71,7.41-.82,11.96,7.51,11.99,14.01.05,28.02.01,42.03.02,12.55,0,15.85,3.54,15.5,16.18Z" fill="#dfd1c1"/>
</svg>