<?xml version="1.0" encoding="UTF-8"?>
<svg id="Capa_1" data-name="Capa 1" xmlns="http://www.w3.org/2000/svg" viewBox="0 0 829.19 165.91">
  <path d="m185.06,51.42c-.37-3.75-.28-7.07,1.47-10.43,4.87-9.36,9.5-18.85,14.2-28.3,2.64-5.31,6.79-8.47,12.8-8.48,5.97-.01,10.17,2.97,12.86,8.34,18.19,36.33,36.42,72.63,54.65,108.94,5.02,10,10.09,19.97,15.07,29.99.66,1.34,1.19,2.87,1.28,4.34.18,3.3-2.16,5.68-5.48,5.74-4.35.08-8.69-.04-13.04.05-2.89.06-4.72-1.25-5.98-3.77-9.36-18.72-18.76-37.43-28.15-56.14-8.99-17.89-18.01-35.77-26.97-53.68-.9-1.8-2.18-3.24-4.12-2.82-1.46.32-3.27,1.4-3.93,2.66-4.36,8.22-8.5,16.56-12.56,24.93-.45.92-.23,2.45.21,3.46,5.39,12.41,11.08,24.69,16.28,37.17,4.21,10.12,5.07,20.54,1.3,31.15-4.31,12.13-15.98,20.79-29.24,21.4-11.23.52-20.92-2.63-28.35-11.26-7.22-8.39-9.22-18.36-7.92-29.15,1.13-9.4,5.59-17.64,9.22-26.15,2.82-6.63,5.76-13.2,8.8-20.14.46.65.79,1.02,1.01,1.45,3.53,7.03,6.99,14.09,10.59,21.08,1.24,2.4,1.22,4.61,0,6.96-2.1,4.09-4.17,8.2-6.19,12.33-2.79,5.72-2.6,11.4.83,16.74,4.68,7.28,13.8,7.45,18.72.35,3.85-5.55,3.93-11.51.96-17.46-7.7-15.43-15.47-30.81-23.22-46.22-4.26-8.48-8.53-16.95-12.77-25.43-.99-1.99-1.93-3.91-4.59-3.98-2.69-.07-3.75,1.84-4.73,3.81-16.21,32.34-32.41,64.69-48.61,97.04-1.98,3.96-4.03,7.88-5.97,11.86-1.29,2.65-3.25,3.83-6.25,3.82-24.45-.06-48.9,0-73.34-.05-10.54-.02-17.03-10.7-12.29-20.2,9.04-18.09,18.14-36.15,27.2-54.22,13.71-27.35,27.4-54.71,41.18-82.02.85-1.69,2.16-3.46,3.74-4.39,2.92-1.74,6.19-.29,7.87,3.01,2.05,4.02,3.99,8.1,6.1,12.09,1.21,2.3,1.12,4.43-.02,6.7-15.65,31.12-31.28,62.25-46.91,93.38-2.47,4.92-4.98,9.83-7.4,14.78-2.17,4.43-.4,7.19,4.62,7.21,8.6.04,17.2.01,25.81.01,6.17,0,7.88,1.79,7.58,7.98-.05,1.04-.22,2.08.03,3.26,2.3-4.56,4.62-9.12,6.91-13.69,20.53-40.92,41.07-81.83,61.56-122.77,2.67-5.34,6.78-8.45,12.77-8.49,6.13-.04,10.32,3.17,13,8.6,6.05,12.2,12.16,24.38,18.26,36.56.35.71.79,1.37,1.19,2.06Z" fill="#dfd1c1"/>
  <path d="m480.37,113.85c-.36,12.71-.69,25.42-1.09,38.13-.08,2.7,1.22,4.63,2.86,6.58.77.92,1.64,2.82,1.23,3.45-.7,1.06-2.35,1.91-3.68,2.03-3.09.29-6.23.26-9.32,0-1.16-.1-2.8-.95-3.19-1.88-.36-.89.26-2.81,1.08-3.46,3.33-2.61,3.95-6.04,4.07-9.95.43-13.35.96-26.7,1.63-40.04.16-3.25-.95-5.54-3.26-7.69-1.01-.95-1.87-2.76-1.74-4.07.2-2.01,2.22-2,3.93-1.98,3.57.04,7.15.11,10.71-.02,2.66-.1,4.18.96,5.22,3.44,5.57,13.29,11.26,26.52,16.91,39.77.35.82.79,1.59,1.37,2.77,4.08-8.8,7.98-17.24,11.9-25.67,2.69-5.79,5.48-11.54,8.07-17.37.91-2.05,2.25-2.94,4.42-2.91,3.75.04,7.52-.12,11.26.09,1.17.07,3.01.87,3.26,1.71.31,1.06-.32,2.96-1.21,3.71-3.19,2.68-4.11,5.88-3.91,9.95.63,12.79,1.08,25.6,1.36,38.41.09,3.95,1.67,6.81,4.59,9.17,1.29,1.04,2.74,2.05,2.01,4.06-.75,2.05-2.51,2.09-4.32,2.08-5.77-.03-11.54.09-17.3-.09-1.27-.04-3.29-.8-3.57-1.67-.36-1.13.27-3.13,1.18-4.02,3.05-2.98,4.2-6.33,4.03-10.59-.45-11.4-.57-22.82-1.39-34.41-1.76,3.72-3.54,7.42-5.27,11.15-4.87,10.52-9.7,21.05-14.58,31.56-.42.9-.91,1.83-1.58,2.55-2.34,2.55-5.35,2.07-6.69-1.09-5.75-13.61-11.46-27.23-17.2-40.84-.41-.98-.86-1.95-1.29-2.93l-.53.1Z" fill="#dfd1c1"/>
  <path d="m679.65,138.79c4.72,6.75,6.74,15.32,14.51,19.87.8.47,1.48,2.38,1.15,3.21-.38.97-1.9,2.08-2.96,2.11-6.03.2-12.08.16-18.12.07-3.01-.05-4.39-2.57-2.46-4.88,2.83-3.39,1.6-6.17.17-9.71-2.67-6.59-6.9-8.81-13.87-7.96-5.58.67-5.65.14-5.63,5.84,0,4.34.7,8.3,4.66,11.09.9.64,1.38,2.58,1.19,3.79-.11.74-1.87,1.7-2.91,1.73-6.68.15-13.36.15-20.04-.02-1.05-.03-2.86-1.07-2.93-1.79-.13-1.22.47-3.13,1.42-3.74,4.11-2.67,4.84-6.67,4.86-10.97.06-11.81.05-23.62,0-35.42-.02-4.42-1.11-8.43-4.48-11.67-.78-.75-1.29-2.62-.89-3.52.41-.91,2.08-1.73,3.22-1.75,8.42-.14,16.85-.34,25.26,0,9.1.37,17.59,2.49,24.29,9.54,7.59,7.97,8.31,27.33-5.49,33.63-.24.11-.46.26-.97.56Zm-19.09-3.14c1.1,0,2.19.03,3.29,0,7.11-.22,12.69-5.25,13.33-12.06,1.23-13-6.59-23.86-20.92-22.69-3.15.26-3.8.73-3.81,3.93-.01,7.58,0,15.16,0,22.75,0,7.89.18,8.07,8.11,8.07Z" fill="#dfd1c1"/>
  <path d="m434.5,164.13c-3.02,0-6.06.19-9.05-.09-1.24-.12-2.89-.98-3.41-1.98-.4-.77.36-2.72,1.2-3.42,2.06-1.71,2.41-3.49,1.82-6.01-1.67-7.15-2.49-8.08-9.76-8.16-5.48-.07-10.97.15-16.44.51-1.09.07-2.58,1.09-3.05,2.08-1.17,2.44-2.11,5.07-2.6,7.72-.21,1.15.96,2.53,1.37,3.84.41,1.3,1.15,2.77.83,3.92-.21.77-2,1.48-3.12,1.54-3.65.19-7.33.25-10.97-.03-1.17-.09-2.91-1.24-3.16-2.22-.25-.95.79-2.91,1.77-3.39,3.57-1.75,5.45-4.62,6.85-8.14,5.42-13.63,10.87-27.25,16.45-40.82,1.47-3.59,2.15-6.69-1.39-9.53-.66-.53-.95-2.31-.58-3.14.38-.84,1.76-1.66,2.75-1.71,3.65-.2,7.32-.1,10.98-.07,2.3.02,3.25,1.56,4.01,3.49,5.97,15.18,12,30.34,18.01,45.5.87,2.2,1.48,4.56,2.69,6.56,1.66,2.76,3.86,5.18,5.66,7.86.73,1.1,1.57,2.63,1.31,3.73-.2.86-1.97,1.79-3.11,1.89-3,.26-6.03.09-9.05.09Zm-35.14-26.22h20.29c-3.44-8.87-6.62-17.05-9.8-25.23l-.67.1c-3.19,8.15-6.37,16.3-9.83,25.13Z" fill="#dfd1c1"/>
  <path d="m612.33,164.08c-3.11,0-6.24.16-9.33-.09-1.05-.09-2.45-1.01-2.89-1.94-.36-.75.15-2.55.86-3.05,3.27-2.31,2.73-5.1,1.7-8.25-1.89-5.75-1.81-6.01-7.88-6.19-6.03-.18-12.07.09-18.1.41-.99.05-2.34,1.14-2.78,2.09-1.13,2.47-2.07,5.09-2.6,7.75-.22,1.07.88,2.37,1.27,3.6.43,1.38,1.24,2.94.91,4.15-.22.78-2.18,1.43-3.39,1.51-3.38.2-6.79.26-10.15-.03-1.27-.11-3-1.03-3.55-2.09-.88-1.68.27-3.07,2.03-3.83,3.05-1.32,4.88-3.79,6.08-6.76,5.82-14.47,11.57-28.96,17.43-43.41,1.16-2.86,1.03-5.16-1.36-7.41-.85-.8-1.5-2.78-1.09-3.7.43-.95,2.23-1.65,3.49-1.76,2.91-.25,5.87.08,8.78-.12,2.97-.2,4.51,1.12,5.55,3.77,6.79,17.32,13.66,34.61,20.48,51.91,1.23,3.13,2.99,5.76,5.72,7.86.9.7,1.54,2.58,1.28,3.67-.2.84-1.97,1.75-3.11,1.84-3.09.25-6.22.09-9.33.08Zm-14.55-26.11c-3.43-8.88-6.6-17.11-10.07-26.11-3.42,9.05-7.15,17.12-9.93,26.11h20.01Z" fill="#dfd1c1"/>
  <path d="m816.81,164.08c-2.93,0-5.88.19-8.78-.09-1.23-.12-2.89-.95-3.39-1.94-.4-.79.28-2.82,1.12-3.43,2.6-1.91,2.38-4.13,1.67-6.78-1.75-6.57-2.46-7.34-9.27-7.39-5.48-.04-10.97.32-16.45.36-1.99.01-3.04.94-3.67,2.65-.66,1.8-1.31,3.6-1.95,5.4-.8,2.23-.74,4.16,1.2,5.98.74.69,1.14,2.49.76,3.4-.36.88-1.9,1.71-2.97,1.77-3.74.21-7.51.23-11.25-.01-1.08-.07-2.56-1.05-3.03-2.02-.77-1.56.07-3.02,1.76-3.73,3.36-1.42,5.21-4.11,6.52-7.38,5.72-14.31,11.46-28.6,17.26-42.88,1.15-2.83,1.12-5.16-1.35-7.4-.87-.79-1.65-2.89-1.2-3.64.61-1.03,2.39-1.74,3.74-1.86,2.91-.27,5.86.05,8.78-.12,2.84-.17,4.34,1.09,5.34,3.65,6.77,17.23,13.64,34.41,20.41,51.63,1.3,3.32,3.1,6.11,5.97,8.33.88.68,1.33,2.6,1.1,3.77-.15.75-1.89,1.59-2.97,1.67-3.1.22-6.22.08-9.34.08Zm-14.59-26.09c-3.48-9-6.65-17.19-9.82-25.37-.22.02-.45.05-.67.07-3.19,8.22-6.38,16.44-9.83,25.3h20.32Z" fill="#dfd1c1"/>
  <path d="m731.1,94.99c6.68,0,13.37,0,20.05,0,6,.01,7.13,1,7.9,6.88.44,3.35.95,6.69,1.22,10.05.08,1.04-.54,2.13-.83,3.19-1.16-.35-2.78-.34-3.39-1.12-1.74-2.2-3.13-4.69-4.54-7.13-1.78-3.08-4.44-4.79-7.88-5.29-3.93-.57-5.94,1.15-5.95,5.14-.03,13.64-.08,27.28.03,40.93.03,4.18.75,8.16,4.89,10.67.88.53,1.64,2.58,1.29,3.46-.41,1.03-2.08,2.16-3.24,2.2-6.49.21-13,.19-19.49.01-1.1-.03-2.86-1.06-3.07-1.94-.27-1.13.3-3.18,1.2-3.75,3.96-2.53,4.69-6.29,4.7-10.45.02-13.73.02-27.47,0-41.2,0-4.01-1.92-5.63-5.91-5.06-3.16.45-5.67,2.03-7.4,4.7-1.14,1.76-2.03,3.68-3.16,5.45-.68,1.06-1.46,2.15-2.46,2.85-.7.49-1.99.69-2.75.38-.53-.21-.92-1.55-.84-2.34.46-4.63.95-9.26,1.69-13.85.42-2.57,2.63-3.74,6.53-3.77,7.14-.05,14.28-.01,21.42-.02Z" fill="#dfd1c1"/>
  <path d="m343.78,164.13c-6.41,0-12.82.1-19.22-.09-1.31-.04-3.3-.91-3.68-1.9-.38-.97.52-3.09,1.51-3.81,3.46-2.54,4.68-5.9,4.68-9.97,0-12.36.09-24.71-.02-37.07-.03-4.08-.81-7.94-4.69-10.52-.89-.6-1.56-2.68-1.21-3.67.35-.98,2.12-1.99,3.3-2.02,6.4-.19,12.81-.18,19.21,0,1.1.03,2.83,1.04,3.07,1.92.31,1.09-.23,3.16-1.1,3.72-4.12,2.67-4.8,6.6-4.8,10.97.01,13.55,0,27.09,0,40.64,0,3.98.95,5.05,4.87,5.39,1.55.13,3.12,0,4.66.19,6.82.84,11.16-2.26,13.74-8.37.64-1.51,1.22-3.13,2.24-4.36.67-.82,2.2-1.6,3.1-1.38.88.21,2.1,1.75,2.04,2.64-.32,4.73-.81,9.46-1.66,14.12-.21,1.17-1.82,2.46-3.08,2.96-1.55.61-3.4.59-5.13.6-5.95.06-11.9.02-17.85.02Z" fill="#dfd1c1"/>
  <path d="m432.5,63.76c-3.18,1.04-5.13-.27-7.09-2.56-8.22-9.56-16.62-18.97-25.55-29.11v30.99h-6.85V18.24c3.94-.69,7.15-.57,10.17,3.1,6.51,7.92,13.6,15.37,20.47,23.01.55.61,1.2,1.14,2.4,2.27v-28.5h6.47v45.64Z" fill="#dfd1c1"/>
  <path d="m493.21,29.24c-1.27.93-2.63,1.92-3.51,2.57-2.11-1.85-4.02-3.58-5.98-5.24-4.72-4-9.92-5.54-15.89-3-6.14,2.61-8.91,7.69-9.68,13.9-.55,4.41-.14,8.8,2.01,12.92,4.85,9.27,16.08,11.32,23.69,4.18,1.79-1.69,3.33-3.65,5.14-5.67,1.41,1.03,2.77,2.03,4.35,3.19-4.36,6.75-10.11,11.27-17.98,12.14-9.36,1.04-17.94-1.3-24.32-8.63-6.08-6.98-6.86-15.26-3.74-23.7,3.23-8.71,10.19-13.12,19.1-14.58,10.53-1.73,19.5.84,25.94,9.91.25.35.47.72.67,1.11.09.18.09.41.19.89Z" fill="#dfd1c1"/>
  <path d="m500.77,63.13c4.23-8.87,8.29-17.4,12.35-25.93,2.92-6.12,5.76-12.28,8.85-18.31.48-.93,2.11-1.77,3.21-1.76,1.11.01,2.78.86,3.22,1.8,6.71,14.32,13.26,28.72,19.83,43.11.13.27.09.62.17,1.3-3.28,0-6.47.12-9.65-.09-.75-.05-1.67-1.13-2.09-1.95-1.41-2.78-2.5-5.73-4-8.45-.49-.88-1.85-1.76-2.84-1.81-4.53-.19-9.07-.19-13.6,0-1.01.04-2.29.89-2.9,1.76-1.05,1.47-1.68,3.23-2.46,4.89q-2.84,6.06-10.09,5.45Zm29.09-16.55c-2.23-4.91-4.3-9.45-6.67-14.65-2.43,5.17-4.59,9.76-6.89,14.65h13.56Z" fill="#dfd1c1"/>
  <path d="m320.98,2.9c-.07-1.06-.12-1.86-.18-2.9h227.98c.68,1.99.31,3.12-2.07,2.9-.54-.05-1.08,0-1.62,0-73.46,0-146.93,0-220.39,0h-3.71Z" fill="#dfd1c1"/>
  <path d="m548.91,78.54v2.77h-227.96c-.05-.92-.09-1.73-.14-2.77h228.1Z" fill="#dfd1c1"/>
  <path d="m353.28,18.21v3.53h-21.17v14.88h18.48v3.92h-18.53v22.6h-11.13V18.21h32.35Z" fill="#dfd1c1"/>
  <path d="m377.35,63.25h-10.49V18.16h10.49v45.09Z" fill="#dfd1c1"/>
</svg>