<?xml version="1.0" encoding="utf-8"?>
<!-- Generator: Adobe Illustrator 27.5.0, SVG Export Plug-In . SVG Version: 6.00 Build 0)  -->
<svg version="1.1" id="Capa_1" xmlns="http://www.w3.org/2000/svg" xmlns:xlink="http://www.w3.org/1999/xlink" x="0px" y="0px"
	 viewBox="0 0 250 250" style="enable-background:new 0 0 250 250;" xml:space="preserve">
<style type="text/css">
	.st0{fill:#4A0D24;}
	.st1{fill:#DFD1C1;}
</style>
<path class="st0" d="M208.7,250H41.3C18.5,250,0,231.5,0,208.7V41.3C0,18.5,18.5,0,41.3,0h167.4C231.5,0,250,18.5,250,41.3v167.4
	C250,231.5,231.5,250,208.7,250z"/>
<path class="st1" d="M78.7,163.6c3.6-7.1,7.2-14.2,10.8-21.4c9-17.9,18-35.9,27-53.8c1.1-2.1,2.2-4.3,3.2-6.4c1.5-3.1,4-4.7,7.4-4.9
	c3.6-0.1,6.3,1.4,7.9,4.6c3.6,7,7.1,14.1,10.7,21.2c0.3,0.5,0.5,1,1,1.6c-0.5-3.3,1.4-5.8,2.7-8.4c2.3-4.7,4.6-9.3,7-13.9
	c3.1-5.9,10.4-6.9,14.4-2c0.7,0.9,1.3,1.9,1.8,2.9c10.8,21.4,21.5,42.9,32.2,64.3c3.1,6.2,6.3,12.4,9.4,18.6c2,4,0.4,6.5-4,6.6
	c-2.1,0-4.2,0-6.2,0c-2,0-3.3-0.9-4.2-2.8c-10.9-21.8-21.9-43.6-32.8-65.3c-0.6-1.1-1.1-2.3-2.7-2.3c-1.6,0-2.1,1.1-2.7,2.3
	c-2.2,4.5-4.5,9-6.8,13.5c-0.6,1.1-0.6,2-0.1,3.1c3.3,7.3,6.6,14.5,9.7,21.9c2.6,6.2,3.3,12.6,0.9,19c-3.5,9.6-13.4,15-23.4,12.9
	c-9.8-2-16.1-9.4-16.7-19.4c-0.3-4.9,0.9-9.6,2.8-14c2.5-5.9,5.2-11.8,7.8-17.7c0.2-0.4,0.2-1.1,0.8-1.1c0.6,0,0.7,0.7,0.9,1.1
	c2.1,4.1,4.1,8.2,6.2,12.3c0.8,1.6,0.8,3,0,4.5c-1.2,2.4-2.5,4.9-3.7,7.3c-1.7,3.5-1.5,7,0.7,10.3c2.5,3.6,7.2,3.9,10.1,0.7
	c2.6-2.9,3.1-7.3,1.1-11.2c-6.1-12.1-12.2-24.2-18.2-36.3c-1.2-2.3-2.3-4.6-3.5-6.9c-0.6-1.2-1.1-2.3-2.7-2.3c-1.5,0-2,1.1-2.6,2.2
	c-5.9,11.8-11.8,23.7-17.8,35.5c-5,10-10.1,20-15.1,30c-0.9,1.8-2.3,2.7-4.3,2.7c-14.5,0-29,0.1-43.5,0c-5.1,0-8.4-3-9.1-7.5
	c-0.3-1.9,0.2-3.7,1.1-5.4c7.4-14.8,14.9-29.6,22.3-44.4C64.7,103,70.9,90.7,77,78.3c0.9-1.8,1.7-3.6,4.1-3.6c2.3,0,3.2,1.7,4.1,3.5
	c0.9,1.9,1.8,3.9,2.9,5.7c1,1.7,0.9,3.3,0,5c-3.8,7.5-7.5,14.9-11.3,22.4c-7.1,14.1-14.2,28.2-21.3,42.3c-1.3,2.6-0.3,4.2,2.7,4.3
	c5,0,9.9,0,14.9,0C77.7,157.8,78.8,159.1,78.7,163.6L78.7,163.6z"/>
</svg>
