<?xml version="1.0" standalone="no"?>
<!DOCTYPE svg PUBLIC "-//W3C//DTD SVG 20010904//EN"
 "http://www.w3.org/TR/2001/REC-SVG-20010904/DTD/svg10.dtd">
<svg version="1.0" xmlns="http://www.w3.org/2000/svg"
 width="501.000000pt" height="501.000000pt" viewBox="0 0 501.000000 501.000000"
 preserveAspectRatio="xMidYMid meet">
<metadata>
Created by potrace 1.14, written by Peter Selinger 2001-2017
</metadata>
<g transform="translate(0.000000,501.000000) scale(0.100000,-0.100000)"
fill="#000000" stroke="none">
<path d="M728 5000 c-96 -12 -171 -36 -268 -86 -164 -84 -285 -207 -364 -368
-88 -179 -80 15 -84 -1991 -2 -1323 0 -1799 9 -1855 47 -307 266 -559 574
-662 l70 -23 1813 -3 c1780 -2 1815 -2 1898 18 293 69 520 289 606 587 l23 78
0 1810 0 1810 -23 80 c-68 237 -221 421 -437 525 -190 92 -9 84 -1995 86 -965
1 -1785 -2 -1822 -6z m955 -1507 c8 -10 36 -60 61 -112 33 -69 44 -101 39
-119 -3 -14 -156 -323 -340 -687 -183 -364 -333 -669 -333 -678 0 -8 7 -23 16
-31 13 -13 46 -16 208 -16 179 0 195 -2 219 -20 16 -13 27 -33 29 -53 3 -27
32 24 187 333 101 201 291 577 422 836 225 442 242 472 278 492 27 15 56 22
93 22 96 0 106 -11 247 -290 l124 -245 12 43 c14 46 184 389 215 433 26 36 78
59 135 59 54 0 93 -18 127 -58 33 -39 888 -1745 888 -1772 0 -58 -43 -80 -155
-80 -136 0 -90 -68 -483 714 -418 832 -364 774 -489 531 -46 -88 -83 -169 -83
-181 0 -12 14 -53 31 -91 99 -216 181 -415 194 -464 21 -81 19 -194 -5 -270
-37 -120 -108 -200 -230 -258 -49 -23 -67 -26 -160 -26 -82 1 -116 5 -156 21
-113 46 -191 123 -236 234 -18 45 -22 75 -22 165 -1 95 3 121 27 190 38 108
180 428 192 432 12 4 155 -279 155 -306 0 -11 -23 -66 -51 -124 -65 -133 -70
-169 -35 -241 41 -85 97 -110 170 -78 60 27 90 79 91 154 0 56 -8 75 -222 500
-122 244 -232 458 -243 476 -16 27 -26 33 -48 30 -25 -3 -51 -50 -374 -694
-325 -647 -350 -693 -379 -703 -39 -14 -895 -15 -953 -1 -79 18 -127 73 -134
153 l-4 55 432 858 c238 473 439 865 448 872 23 18 76 15 95 -5z"/>
</g>
</svg>
